<?xml version="1.0" encoding="UTF-8"?>
<svg id="_レイヤー_1" data-name="レイヤー 1" xmlns="http://www.w3.org/2000/svg" xmlns:xlink="http://www.w3.org/1999/xlink" viewBox="0 0 1920 1080">
  <defs>
    <style>
      .cls-1 {
        fill: #fff;
      }

      .cls-2 {
        fill: url(#_名称未設定グラデーション_710-2);
      }

      .cls-3 {
        fill: url(#_名称未設定グラデーション_710-3);
      }

      .cls-4 {
        fill: url(#_名称未設定グラデーション_710-4);
      }

      .cls-5 {
        fill: url(#_名称未設定グラデーション_120);
      }

      .cls-6 {
        fill: url(#_名称未設定グラデーション_710);
      }

      .cls-7 {
        fill: url(#_名称未設定グラデーション_101);
      }
    </style>
    <linearGradient id="_名称未設定グラデーション_710" data-name="名称未設定グラデーション 710" x1="-104.96" y1="421.09" x2="695.04" y2="421.09" gradientTransform="translate(14.89 123.47) scale(.7 1)" gradientUnits="userSpaceOnUse">
      <stop offset="0" stop-color="#a1dbff"/>
      <stop offset="1" stop-color="#efcaff"/>
    </linearGradient>
    <linearGradient id="_名称未設定グラデーション_710-2" data-name="名称未設定グラデーション 710" x1="-232.93" y1="221.58" x2="567.07" y2="221.58" gradientTransform="translate(50.62 606.9) scale(.66 .27)" xlink:href="#_名称未設定グラデーション_710"/>
    <linearGradient id="_名称未設定グラデーション_101" data-name="名称未設定グラデーション 101" x1="4603.54" y1="221.58" x2="5403.54" y2="221.58" gradientTransform="translate(259.48 503.61) scale(.04 .27)" gradientUnits="userSpaceOnUse">
      <stop offset="0" stop-color="#e7dbff"/>
      <stop offset="1" stop-color="#efcaff"/>
    </linearGradient>
    <linearGradient id="_名称未設定グラデーション_710-3" data-name="名称未設定グラデーション 710" x1="2063.6" y1="936.83" x2="2863.6" y2="936.83" gradientTransform="translate(-54.96 -404.08) scale(.72 1)" xlink:href="#_名称未設定グラデーション_710"/>
    <linearGradient id="_名称未設定グラデーション_710-4" data-name="名称未設定グラデーション 710" x1="2147.14" y1="2083.71" x2="2947.14" y2="2083.71" gradientTransform="translate(129.33 17.24) scale(.66 .27)" xlink:href="#_名称未設定グラデーション_710"/>
    <linearGradient id="_名称未設定グラデーション_120" data-name="名称未設定グラデーション 120" x1="32614.46" y1="2083.71" x2="33414.46" y2="2083.71" gradientTransform="translate(376.32 123.23) scale(.04 .27)" gradientUnits="userSpaceOnUse">
      <stop offset="0" stop-color="#a2dbff"/>
      <stop offset="1" stop-color="#add8ff"/>
    </linearGradient>
  </defs>
  <rect class="cls-6" x="-58.58" y="493.25" width="559.98" height="102.6" rx="36" ry="36" transform="translate(-177.83 113.08) rotate(-20.65)"/>
  <rect class="cls-2" x="-103.89" y="653.61" width="530.69" height="28.14" rx="12" ry="12" transform="translate(-225.1 99.84) rotate(-20.65)"/>
  <circle class="cls-1" cx="1586.18" cy="279.05" r="5.22"/>
  <rect class="cls-7" x="421.44" y="550.32" width="28.14" height="28.14" rx="12" ry="12" transform="translate(-171.06 189.86) rotate(-20.65)"/>
  <rect class="cls-3" x="1427.7" y="481.45" width="574.79" height="102.6" rx="36" ry="36" transform="translate(-77.68 639.11) rotate(-20.65)"/>
  <rect class="cls-4" x="1553.67" y="574.78" width="530.69" height="28.14" rx="12" ry="12" transform="translate(-90.79 679.37) rotate(-20.65)"/>
  <rect class="cls-5" x="1523.73" y="680.77" width="28.14" height="28.14" rx="12" ry="12" transform="translate(-146.24 587) rotate(-20.65)"/>
</svg>